<svg xmlns="http://www.w3.org/2000/svg" viewBox="0 0 90.95 52.16"><defs><style>.cls-1{fill:#212121;}.cls-1,.cls-2,.cls-3,.cls-4,.cls-5,.cls-6,.cls-7,.cls-8{stroke:#545454;stroke-miterlimit:10;stroke-width:0.19px;}.cls-3{fill:#454545;}.cls-4{fill:#363636;}.cls-5{fill:#4c4c4c;}.cls-6{fill:#333;}.cls-7{fill:#171717;}.cls-8{fill:#4a4a4a;}</style></defs><g id="Layer_2" data-name="Layer 2"><g id="Drawing"><g id="Bottom_Housing" data-name="Bottom Housing"><path class="cls-1" d="M23.49,12.16H11.55l-1.24,2.47H4.52v.66l-4.42.1V19H4.52v6.36l2.87,12.9h3.22l.07,1.17h.9c0,1.2,4.89,1.33,5,0l20.25,0a3.84,3.84,0,0,1,.3,1.8c0,.87,0,6.6,0,6.6a11.52,11.52,0,0,1,1.31,1.87c.25.42,1,2.09,1.2,2.29s11.85,0,11.85,0l2.42-4.16.1-8.25,4.41-.15v-.87l15.81-.15c.18,3.19,5.43,2.9,5.29.08l4,0L86.3,25.85l.12-6.65,4.44-.15V15.39l-4.34-.08,0-.64-15.07-.2-1.27-2.31L67.52,12l0-8.29L66.07.1h-12L52.5,1.86l0,10.34-14.25.17.13-8.74-1-3.41H24.84L23.49,3.46Z"/><path class="cls-2" d="M73.53,19.5l-.84,14.56c-.14,1.95-2.46,1.76-2.32-.28a17.43,17.43,0,0,0,0-2.56l-2.06-.14a28.45,28.45,0,0,1-1.21-4.27c.09-.49,1.56-1.6,1.56-1.6h-7l.77,1.6-2.21.11a.28.28,0,0,0-.27.31c0,.31.41.23.41.23h1.92L61,31.3H58.24l-.31,3.1c-.15,1.37-2.16,1.44-2.06-.08.07-1.12.12-3.18.12-3.18l-.49-12h2.55V14.91l18.14-.13L76,18.68l10.38.16v.66Z"/><path class="cls-3" d="M24.84.22h8.82L33.42,3.5l.24,11.12H31.82l-.13.7H28.41l0,.82s-.41-.91-1-.91-2,.29-2.06.13a1.26,1.26,0,0,0-.49-.58,5.69,5.69,0,0,0-1.35-.08V3.46Z"/><polygon class="cls-4" points="55.06 14.89 41.5 14.78 41.5 19.12 58.05 19.12 58.05 14.91 55.06 14.89"/><polygon class="cls-5" points="20.49 12.16 11.55 12.16 10.31 14.63 4.52 14.63 4.52 15.17 20.21 15.39 20.49 12.16"/><polygon class="cls-6" points="33.42 3.67 38.43 3.63 37.46 0.22 33.66 0.22 33.42 3.67"/><polygon class="cls-5" points="47.57 15.76 47.57 14.94 31.79 14.78 31.79 15.6 47.57 15.76"/><rect class="cls-5" x="35.85" y="15.76" width="3.48" height="3.48"/><rect class="cls-5" x="38.43" y="19.23" width="1.85" height="6.53"/><polygon class="cls-5" points="31.79 26.68 28.14 26.81 28.58 15.39 31.79 15.39 31.79 26.68"/><polygon class="cls-5" points="17.16 26.81 13.79 26.81 13.79 15.13 16.82 15.13 17.16 26.81"/><rect class="cls-6" x="4.52" y="19.23" width="1.93" height="6.19"/><polygon class="cls-6" points="63.38 0.1 63.49 3.62 67.54 3.66 66.08 0.1 63.38 0.1"/><polygon class="cls-2" points="21.12 15.13 23.28 15.13 24.3 33.4 21.98 33.55 21.12 15.13"/><path class="cls-2" d="M16.24,38.21H19.3l.13.57h4.36a20,20,0,0,1,0-2.52c.1-.78,1.15-1.15,1.95-.16A8.2,8.2,0,0,1,27,38.49l7.77-.06-3-11.75-3.65.13,1.55,7.64-10.29.16-2.24-7.8H13.79Z"/><polygon class="cls-7" points="67.52 11.95 67.67 11.96 67.54 3.66 63.49 3.62 63.27 14.78 63.38 12.02 67.52 11.95"/><polygon class="cls-2" points="70.16 12.16 67.67 11.96 67.52 11.95 63.38 12.02 63.27 14.78 70.37 14.78 70.16 12.16"/><polygon class="cls-1" points="38.43 3.63 33.42 3.67 33.42 14.62 34.05 14.62 35.62 12.49 38.01 12.49 38.01 14.62 38.43 14.62 38.43 3.63"/><polygon class="cls-5" points="35.62 12.49 34.05 14.62 33.93 14.78 38.01 14.78 38.01 12.49 35.62 12.49"/><polygon class="cls-2" points="38.43 25.76 40.28 25.76 43.44 38.37 41.31 38.37 38.43 25.76"/><polygon class="cls-5" points="55.06 14.89 55.06 14.89 58.05 14.91 58.05 17.19 61.97 17.11 62.19 15.76 65.68 15.76 65.68 15.39 69.86 15.39 69.86 14.78 55.06 14.89"/><rect class="cls-4" x="65.68" y="15.76" width="5.97" height="2.08"/><polygon class="cls-4" points="76.2 14.53 76.04 18.68 90.11 18.84 89.89 15.37 86.52 15.31 86.5 14.67 76.2 14.53"/><polygon class="cls-4" points="40.65 19.5 46.05 19.5 46.3 34.82 46.62 38.09 43.63 38.37 40.28 25.76 40.65 19.5"/><rect class="cls-4" x="52.46" y="19.5" width="1.82" height="6.12"/><rect class="cls-2" x="52.46" y="25.62" width="1.82" height="2.05"/><polygon class="cls-4" points="76.83 25.43 74.78 25.43 75.03 19.5 76.83 19.5 76.83 25.43"/><rect class="cls-2" x="74.78" y="25.43" width="2.04" height="2.23"/><polygon class="cls-4" points="80.85 19.5 86.42 19.5 86.3 25.85 83.44 38.43 80.29 38.37 80.85 30.99 80.85 19.5"/><rect class="cls-6" x="0.1" y="15.37" width="3.63" height="3.63"/><polygon class="cls-8" points="23.49 3.46 33.42 3.67 33.66 0.22 24.84 0.22 23.49 3.46"/></g></g></g></svg>