<svg xmlns="http://www.w3.org/2000/svg" viewBox="0 0 65.09 116.77"><defs><style>.cls-1{fill:#699bc9;}.cls-1,.cls-2,.cls-3,.cls-4{stroke:#9dbedc;}.cls-1,.cls-10,.cls-2,.cls-3,.cls-4,.cls-5,.cls-6,.cls-7,.cls-8,.cls-9{stroke-miterlimit:10;}.cls-1,.cls-10,.cls-2,.cls-3,.cls-4{stroke-width:0.7px;}.cls-2{fill:#3e7fb9;}.cls-3{fill:#2c73b3;}.cls-4{fill:#b9d0e6;}.cls-10,.cls-5,.cls-6,.cls-7,.cls-8,.cls-9{fill:none;stroke:#000;}.cls-5{stroke-width:1.97px;}.cls-6{stroke-width:0.52px;}.cls-7{stroke-width:0.56px;}.cls-8{stroke-width:0.54px;}.cls-9{stroke-width:0.59px;}.cls-11{fill:#e07254;}</style></defs><g id="Layer_2" data-name="Layer 2"><g id="Drawing"><path class="cls-1" d="M55.3,18.67,6.7,21.08c2,1.68,12.13,10.59,23.34,20.78C37.89,30.72,44.9,21.08,46.44,19.2,44.9,21.08,37.89,30.72,30,41.86c15.44,14,33,30.51,34.48,33.78a6.49,6.49,0,0,0,.21-2L62.31,25A6.67,6.67,0,0,0,55.3,18.67Z"/><path class="cls-2" d="M6.7,21.08a6.69,6.69,0,0,0-6.34,7l2.42,48.6A6.63,6.63,0,0,0,4.62,81C5.16,77.83,18.51,58.22,30,41.86,18.83,31.67,8.74,22.76,6.7,21.08Z"/><path class="cls-3" d="M4.62,81A6.64,6.64,0,0,0,9.79,83l48.59-2.42a6.69,6.69,0,0,0,6.14-5C63,72.37,45.48,55.91,30,41.86,18.51,58.22,5.16,77.83,4.62,81Z"/><rect class="cls-4" x="5.77" y="20.02" width="45.84" height="45.84" rx="4.94" transform="translate(-2.1 1.48) rotate(-2.85)"/><path class="cls-5" d="M12.79,34.32c1,5.91,10.42,6.55,13.18,2.28"/><path class="cls-5" d="M45.54,32.47c-.36,6-10.47,8.05-12.89,3.58"/><line class="cls-6" x1="13.33" y1="35.77" x2="9.97" y2="36.68"/><line class="cls-6" x1="14.92" y1="37.26" x2="11.48" y2="39.27"/><line class="cls-6" x1="45.14" y1="33.96" x2="48.58" y2="34.54"/><line class="cls-6" x1="43.71" y1="35.61" x2="47.34" y2="37.27"/><path class="cls-7" d="M56.24,36.44c9.1-3.55-6.5-28.83-11.71-30.81S35.19,4.28,34.78,0"/><path class="cls-8" d="M3.5,36.54C-1,29.9,9.75,9.64,17.18,6.38S26.26,2.74,25.06.51"/><path class="cls-9" d="M25.79,75.92c.33,2.94,5.25,31.85,5.23,33.76s-.56,4.91-1.37,5.24"/><path class="cls-9" d="M38.09,75.38C41.9,80,50.24,87.74,51.51,89.77s-16,3.23-16.88,8"/><path d="M38.12,95.82c.77,3.4,2.47,10.73-.83,8.49s-4.82-8-3.64-8.3S37.73,94.06,38.12,95.82Z"/><path d="M30.64,111.87c-2.47.71-11.74.81-10.44,2.84s5.53,2.44,8,1.74,3.73-1.29,4.22-2.31S30.64,111.87,30.64,111.87Z"/><path class="cls-10" d="M31.47,45.42c-.35-2.28-4.58-1.45-4.19.46"/><path class="cls-11" d="M27,48.06c-1.65,16,5.09,12.68,6.23-.66"/></g></g></svg>