<svg xmlns="http://www.w3.org/2000/svg" viewBox="0 0 31.64 58.98"><defs><style>.cls-1{fill:#a9a6a2;}.cls-1,.cls-2,.cls-3,.cls-4,.cls-5,.cls-6,.cls-7,.cls-8{stroke:#79756f;stroke-miterlimit:10;stroke-width:0.19px;}.cls-2{fill:#9c9a95;}.cls-3{fill:#847e70;}.cls-4{fill:none;}.cls-5{fill:#726e67;}.cls-6{fill:#97948f;}.cls-7{fill:#e1e0df;}.cls-8{fill:#4f4a41;}</style></defs><g id="Layer_2" data-name="Layer 2"><g id="Drawing"><g id="Crosspoint_Contact" data-name="Crosspoint Contact"><path class="cls-1" d="M31.22,26.35c-.14-1.28-.3-2.52-.3-2.52H29.5c1.59-1.76,3.46-3.55.41-7.13l-.12-1.84-2.67-3.51C25.77,10,25.5,9.87,24.68,9.85s-3.12,1.3-4.35,2.34-.29-5.66,0-7.57S21.51,0,17,.1s-5.68.38-5.85,2.27,0,7.38,0,7.38c-.49.12-1.46-.29-2.37.7s-3.13,3.44-3.13,3.44c-.48.75-1.71,1.47,1.07,5.25l-1.94.1v5.85l-.87-1.43-3.77,0,.09,4.84a1.2,1.2,0,0,0,.63,1L.75,32.13A1.15,1.15,0,0,0,.82,34v2.78c-.38.29-.12,2.64.37,2.9l3.89.08a1.49,1.49,0,0,0,.56.29l1.91.12,0,17.1,1.21,1.63h1.91l1.14-1.63-.07-16.94a1.54,1.54,0,0,1,1.57-.94h5.4a1.51,1.51,0,0,1,.23-.82A1.23,1.23,0,0,1,20,38h2.26c.56.69.25,1.51.87,1.57l.86,0,2.05,0,2.68,0,1.69-.19c.69-1.09.87-2.5.39-2.92,0-1.57-.08-2.74-.08-2.74.51-.72.83-1.41.08-1.91,0-.72-.08-2.26-.08-2.26C31.18,29.27,31.37,27.62,31.22,26.35Zm-20.52.19a6.87,6.87,0,0,1-1,1.55l-.35.11-.13-6.52s.36-.19.48,0,1.09,1.05,1.15,1.37A26.68,26.68,0,0,1,10.7,26.54Zm14.53,1.91s-.14.68-.42.66-.74-1.21-.74-1.21,1-.14,1.16,0S25.23,28.45,25.23,28.45Zm2.9-7.38a15.36,15.36,0,0,1-1.19,2l-2.35-3.77L25.06,16s2.6,2.85,2.89,3.26A3.68,3.68,0,0,1,28.13,21.07Z"/><path class="cls-2" d="M28.58,35.52a3,3,0,0,0,.47-1.14,1.61,1.61,0,0,0-.54-1.11l.07-1.17c0-.21-.12-.41-.58-.42a8.88,8.88,0,0,1-1.6,0c-.46-.27-2.82-3.32-1.68-3.33l2.56,0-.15-9.07H12.56s0,7.61,0,8.27a.78.78,0,0,0,.77.87.67.67,0,0,0,.21,0,4.9,4.9,0,0,0,1.16,0,8.32,8.32,0,0,1,1.49.09,3,3,0,0,1,.17,1c0,.27,1.43,1.65,1.43,2.16,0,0-1,0-2.22,0a.66.66,0,0,0-.69.45l-.13,2.65-4.31,0c-.41,0-.7-.51-.7-1.59V20.83c-.1-.83-.13-1.37-1.63-1.4-.69,0-1.45,0-2.08,0H6l-1.27,0v11.2l.93,2.09,0,1.11A1.23,1.23,0,0,0,5.27,35c.05.81.36.94.42,1h0v2.43a5,5,0,0,0-.42,1.2c0,.23,1.58.6,2.27.57l0,17.11,1.21,1.62h1.91l1.14-1.62-.07-17a4.37,4.37,0,0,1,.25-.36,1.43,1.43,0,0,1,1.32-.58h5.4a1.51,1.51,0,0,1,.23-.82,1.23,1.23,0,0,1,1.09-.5h2.26c.56.69.25,1.5.87,1.56l.86,0,.65,0,4.23-.1a1.29,1.29,0,0,0-.27-1.3A15,15,0,0,1,28.58,35.52Z"/><path class="cls-3" d="M22.23,38.06H20a1.23,1.23,0,0,0-1.09.5h2.48s0,.84.32,1.11,2.28,0,2.28,0l-.86,0C22.49,39.57,22.8,38.75,22.23,38.06Z"/><path class="cls-4" d="M6.3,40.08l-.49,0A1.48,1.48,0,0,0,6.3,40.08Z"/><path class="cls-5" d="M11.55,9.92A14,14,0,0,1,14,11.73c.66.66,1.22.86,1.47.72s.11-6.48,0-7.65-.2-3.77-1.58-4-2.22.25-2.3,1.38S11.25,9.79,11.55,9.92Z"/><path class="cls-6" d="M24,39.67l-.86,0c-.62-.06-.31-.87-.87-1.56V56.36L24,58.56h.77L26,55.74v-16Z"/><polygon class="cls-7" points="6.3 30.62 6.01 19.41 4.74 19.43 4.74 30.63 6.3 30.62"/><polygon class="cls-5" points="7.23 32.72 6.3 30.62 4.74 30.63 5.67 32.72 7.23 32.72"/><path class="cls-7" d="M7.11,32.72v1s-.58.27-.53.64.5,1.69.53,1.83A18.62,18.62,0,0,1,7,38.42a.84.84,0,0,0-.36.66,1.35,1.35,0,0,0,.18,1c.12.07-1.69.17-1.55-.53a4.2,4.2,0,0,1,.4-1.13V36a1.65,1.65,0,0,1-.43-1.36c.09-.89.43-.77.43-.77l0-1.11Z"/><path class="cls-5" d="M5.26,34.93H6.71l.4,1H5.7A2,2,0,0,1,5.26,34.93Z"/><path class="cls-5" d="M14,19.28H12.56l0,8.27a.78.78,0,0,0,.77.87,4.94,4.94,0,0,0,1.37,0,1.4,1.4,0,0,1-.58-1C14.06,26.85,14,19.28,14,19.28Z"/><rect class="cls-5" x="22.24" y="38.06" width="1.31" height="18.18"/><polygon class="cls-8" points="24.79 58.56 23.55 56.25 22.24 56.36 24.02 58.56 24.79 58.56"/><polygon class="cls-5" points="8.99 40.08 9.15 57.29 7.5 57.27 7.55 40.16 8.99 40.08"/><polygon class="cls-8" points="10.42 58.89 9.15 57.29 7.5 57.27 8.71 58.89 10.42 58.89"/></g></g></g></svg>