<svg xmlns="http://www.w3.org/2000/svg" viewBox="0 0 596.74 362.96"><defs><style>.cls-1{fill:#c3cacc;}</style></defs><g id="Layer_2" data-name="Layer 2"><g id="Drawing"><path id="Ground" class="cls-1" d="M553.89,37.14C524.9,37.14,524.65,0,488.3,0,460.51,0,463,36.92,447.14,37.14c-14.45.21-71.65-7.9-79.95-9.09a17.52,17.52,0,0,0-2-.16C342.54,27.23,340.78,5,314.88,5c-26.29,0-37.67,25.9-57.08,25.9H198c-31.73,0-48.6,29.75-76.7,31.45s-14.91-34.45-32-34.45H17.1A16.44,16.44,0,0,0,.65,44.31L0,346.49A16.44,16.44,0,0,0,16.44,363H579.66a16.44,16.44,0,0,0,16.44-16.4l.63-293.45A16.45,16.45,0,0,0,580,36.63Z"/></g></g></svg>