<svg xmlns="http://www.w3.org/2000/svg" viewBox="0 0 520.49 185.91"><defs><style>.cls-1{fill:none;stroke:#254e58;stroke-miterlimit:10;stroke-width:1.05px;}.cls-2{fill:#41656e;}</style></defs><g id="Layer_2" data-name="Layer 2"><g id="Drawing"><g id="Keyboard"><rect id="Frame" class="cls-1" x="0.52" y="0.52" width="519.44" height="184.86" rx="12.61"/><g id="Keys"><rect class="cls-2" x="67.86" y="46.25" width="28.06" height="28.06" rx="4.76"/><rect class="cls-2" x="75.07" y="78.12" width="28.06" height="28.06" rx="4.76"/><rect class="cls-2" x="89.78" y="112.99" width="28.06" height="28.06" rx="4.76"/><rect class="cls-2" x="98.47" y="145.51" width="36.06" height="28.06" rx="4.76"/><rect class="cls-2" x="57.61" y="145.51" width="36.06" height="28.06" rx="4.76"/><rect class="cls-2" x="16.76" y="145.51" width="36.06" height="28.06" rx="4.76"/><rect class="cls-2" x="423.17" y="145.51" width="36.06" height="28.06" rx="4.76"/><rect class="cls-2" x="464.02" y="145.51" width="36.06" height="28.06" rx="4.76"/><rect class="cls-2" x="382.32" y="145.51" width="36.06" height="28.06" rx="4.76"/><rect class="cls-2" x="341.46" y="145.51" width="36.06" height="28.06" rx="4.76"/><rect class="cls-2" x="122.28" y="112.99" width="28.06" height="28.06" rx="4.76"/><rect class="cls-2" x="154.77" y="112.99" width="28.06" height="28.06" rx="4.76"/><rect class="cls-2" x="187.26" y="112.99" width="28.06" height="28.06" rx="4.76"/><rect class="cls-2" x="219.75" y="112.99" width="28.06" height="28.06" rx="4.76"/><rect class="cls-2" x="252.25" y="112.99" width="28.06" height="28.06" rx="4.76"/><rect class="cls-2" x="284.74" y="112.99" width="28.06" height="28.06" rx="4.76"/><rect class="cls-2" x="317.23" y="112.99" width="28.06" height="28.06" rx="4.76"/><rect class="cls-2" x="349.72" y="112.99" width="28.06" height="28.06" rx="4.76"/><rect class="cls-2" x="382.21" y="112.99" width="28.06" height="28.06" rx="4.76"/><rect class="cls-2" x="107.56" y="78.12" width="28.06" height="28.06" rx="4.76"/><rect class="cls-2" x="140.04" y="78.12" width="28.06" height="28.06" rx="4.76"/><rect class="cls-2" x="172.53" y="78.12" width="28.06" height="28.06" rx="4.76"/><rect class="cls-2" x="205.01" y="78.12" width="28.06" height="28.06" rx="4.76"/><rect class="cls-2" x="237.5" y="78.12" width="28.06" height="28.06" rx="4.76"/><rect class="cls-2" x="269.98" y="78.12" width="28.06" height="28.06" rx="4.76"/><rect class="cls-2" x="302.47" y="78.12" width="28.06" height="28.06" rx="4.76"/><rect class="cls-2" x="334.96" y="78.12" width="28.06" height="28.06" rx="4.76"/><rect class="cls-2" x="367.44" y="78.12" width="28.06" height="28.06" rx="4.76"/><rect class="cls-2" x="399.93" y="78.12" width="28.06" height="28.06" rx="4.76"/><rect class="cls-2" x="99.94" y="46.25" width="28.06" height="28.06" rx="4.76"/><rect class="cls-2" x="132.01" y="46.25" width="28.06" height="28.06" rx="4.76"/><rect class="cls-2" x="164.09" y="46.25" width="28.06" height="28.06" rx="4.76"/><rect class="cls-2" x="196.17" y="46.25" width="28.06" height="28.06" rx="4.76"/><rect class="cls-2" x="228.24" y="46.25" width="28.06" height="28.06" rx="4.76"/><rect class="cls-2" x="260.32" y="46.25" width="28.06" height="28.06" rx="4.76"/><rect class="cls-2" x="292.39" y="46.25" width="28.06" height="28.06" rx="4.76"/><rect class="cls-2" x="324.47" y="46.25" width="28.06" height="28.06" rx="4.76"/><rect class="cls-2" x="356.54" y="46.25" width="28.06" height="28.06" rx="4.76"/><rect class="cls-2" x="388.62" y="46.25" width="28.06" height="28.06" rx="4.76"/><rect class="cls-2" x="420.69" y="46.25" width="28.06" height="28.06" rx="4.76"/><rect class="cls-2" x="49.04" y="13.69" width="28.06" height="28.06" rx="4.76"/><rect class="cls-2" x="16.67" y="13.69" width="28.06" height="28.06" rx="4.76"/><rect class="cls-2" x="81.41" y="13.69" width="28.06" height="28.06" rx="4.76"/><rect class="cls-2" x="113.78" y="13.69" width="28.06" height="28.06" rx="4.76"/><rect class="cls-2" x="146.14" y="13.69" width="28.06" height="28.06" rx="4.76"/><rect class="cls-2" x="178.51" y="13.69" width="28.06" height="28.06" rx="4.76"/><rect class="cls-2" x="210.88" y="13.69" width="28.06" height="28.06" rx="4.76"/><rect class="cls-2" x="243.25" y="13.69" width="28.06" height="28.06" rx="4.76"/><rect class="cls-2" x="275.62" y="13.69" width="28.06" height="28.06" rx="4.76"/><rect class="cls-2" x="307.99" y="13.69" width="28.06" height="28.06" rx="4.76"/><rect class="cls-2" x="340.36" y="13.69" width="28.06" height="28.06" rx="4.76"/><rect class="cls-2" x="372.72" y="13.69" width="28.06" height="28.06" rx="4.76"/><rect class="cls-2" x="405.09" y="13.69" width="28.06" height="28.06" rx="4.76"/><rect class="cls-2" x="437.46" y="13.69" width="62.49" height="28.06" rx="7.1"/><rect class="cls-2" x="432.41" y="78.12" width="67.42" height="28.06" rx="7.1"/><rect class="cls-2" x="414.71" y="112.99" width="85.12" height="28.06" rx="7.1"/><rect class="cls-2" x="16.79" y="112.99" width="68.56" height="28.06" rx="7.1"/><rect class="cls-2" x="139.32" y="145.51" width="197.35" height="28.06" rx="7.1"/><rect class="cls-2" x="16.79" y="78.12" width="53.86" height="28.06" rx="6.59"/><rect class="cls-2" x="452.77" y="45.45" width="47.48" height="28.06" rx="6.19"/><rect class="cls-2" x="16.38" y="45.45" width="47.48" height="28.06" rx="6.19"/></g></g></g></g></svg>