<svg xmlns="http://www.w3.org/2000/svg" viewBox="0 0 101.27 94.58"><defs><style>.cls-1{fill:#dc5f3d;}.cls-1,.cls-2,.cls-4{stroke:#f3c8bd;}.cls-1,.cls-2,.cls-3,.cls-4,.cls-5,.cls-6{stroke-miterlimit:10;}.cls-1,.cls-2,.cls-4,.cls-5,.cls-6{stroke-width:1.02px;}.cls-2{fill:#e8937d;}.cls-3,.cls-5{fill:none;}.cls-3,.cls-5,.cls-6{stroke:#000;}.cls-3{stroke-width:1.3px;}.cls-4{fill:#f0bbad;}.cls-6,.cls-7{fill:#fff;}</style></defs><g id="Layer_2" data-name="Layer 2"><g id="Drawing"><path class="cls-1" d="M.9,24.87l10.86,37.9a10,10,0,0,0,12.36,6.86L64.65,58a9.94,9.94,0,0,0,6.12-5c-5.3-.54-65.36-32.1-69.31-35.08A9.94,9.94,0,0,0,.9,24.87Z"/><path class="cls-2" d="M71.5,45.65,60.64,7.75A10,10,0,0,0,48.28.9L7.75,12.51a10,10,0,0,0-6.29,5.38c4,3,64,34.54,69.31,35.08A10,10,0,0,0,71.5,45.65Z"/><path class="cls-3" d="M55.52,60.64s21.69-1.48,24.2,2.8S87.3,81.76,89.81,82.35"/><path d="M90.23,78.07c3.16-.33,7.77-2.19,9.08-1.42s2.85,2.74,1.32,4.27-8.54,6.23-11.82,3.28S87.81,78.33,90.23,78.07Z"/><path class="cls-3" d="M13.32,48.68s0,29.52-2.07,33.51S2.54,85,2.54,85"/><path class="cls-3" d="M40,65.08s27.22.13,28,6.33S75.14,92,80.31,93.64"/><path d="M77.3,89c2.16.09,7.2-1.32,9.26-.79s6.26,1.8,3.78,3.66-9,3.75-12.54,2.07S74.79,88.89,77.3,89Z"/><rect class="cls-4" x="18.23" y="13.03" width="50.09" height="50.09" rx="8.24" transform="matrix(0.96, -0.28, 0.28, 0.96, -8.82, 13.39)"/><path class="cls-5" d="M50.08,42.65c-1-3.21-6.95-1-6,1.62"/><path class="cls-5" d="M40.2,51.7c-.09,3.37,6.22,3.27,6.15.43"/><circle class="cls-6" cx="32.2" cy="35.26" r="11.07"/><circle cx="34.87" cy="32.74" r="6.98"/><circle class="cls-7" cx="36.64" cy="29.45" r="1.77"/><circle class="cls-6" cx="52.93" cy="28.52" r="11.07"/><circle cx="56.23" cy="25.76" r="6.98"/><circle class="cls-7" cx="56.71" cy="22.04" r="1.77"/></g></g></svg>