<svg xmlns="http://www.w3.org/2000/svg" viewBox="0 0 83.95 102.75"><defs><style>.cls-1{fill:#7f7b74;}.cls-1,.cls-2,.cls-3{stroke:#908d87;}.cls-1,.cls-2,.cls-3,.cls-4,.cls-5,.cls-6{stroke-miterlimit:10;}.cls-1,.cls-2,.cls-3,.cls-5{stroke-width:1.07px;}.cls-2{fill:#5f5a52;}.cls-3{fill:#9e9b96;}.cls-4,.cls-5{fill:none;}.cls-4,.cls-5,.cls-6{stroke:#000;}.cls-4{stroke-width:1.37px;}.cls-6,.cls-7{fill:#fff;}.cls-6{stroke-width:1.03px;}</style></defs><g id="Layer_2" data-name="Layer 2"><g id="Drawing"><g id="Tactile"><path class="cls-1" d="M74.09,50,68.31,9.4C67.5,3.71,62-.2,56,.65L10.05,7.19A11.25,11.25,0,0,0,2.36,11.9C6.07,15.41,65.46,50.44,74,53.53A9.65,9.65,0,0,0,74.09,50Z"/><path class="cls-2" d="M2.36,11.9A10,10,0,0,0,.64,19L6.42,59.65c.81,5.68,6.34,9.59,12.35,8.74l45.91-6.54A11,11,0,0,0,74,53.53C65.46,50.44,6.07,15.41,2.36,11.9Z"/><rect class="cls-3" x="22.94" y="11.45" width="49.16" height="52.57" rx="8.36" transform="translate(-4.85 7.08) rotate(-8.11)"/><path class="cls-4" d="M43.15,64.65C42.38,74,34.61,101,38.3,101.25"/><path d="M38,97c4.5-.26,14.18-.87,10.78,2.48s-11,4-11.24,2.64S35.69,97.08,38,97Z"/><path d="M65.29,89.72c4.49-.29,14.17-1,10.8,2.4s-11,4.11-11.23,2.72S63,89.87,65.29,89.72Z"/><path class="cls-4" d="M58.9,62.67c4.06,3.12,11.53,10.48,11.53,16s-4.78,9.28-4.56,12"/><path class="cls-4" d="M15.62,48.48c-1.72,5.82,2.74,26.72,0,29.12"/><path class="cls-5" d="M71.71,33.25c8.61,9.48,7.44,17.07,12.11,18.24"/><path class="cls-5" d="M45.8,46.14c-1.52.4,7.36.38,6.05-2.3"/><circle class="cls-6" cx="37.22" cy="32.31" r="10.64"/><circle cx="41.13" cy="32.12" r="6.71"/><circle class="cls-7" cx="44.23" cy="30.83" r="1.7"/><circle class="cls-6" cx="57.85" cy="28.62" r="10.64"/><circle cx="61.91" cy="28.22" r="6.71"/><circle class="cls-7" cx="65.3" cy="26.98" r="1.7"/></g></g></g></svg>